<?xml version="1.0" standalone="no"?>
<!DOCTYPE svg PUBLIC "-//W3C//DTD SVG 20010904//EN"
 "http://www.w3.org/TR/2001/REC-SVG-20010904/DTD/svg10.dtd">
<svg version="1.0" xmlns="http://www.w3.org/2000/svg"
 width="1000.000000pt" height="500.000000pt" viewBox="0 0 1000.000000 500.000000"
 preserveAspectRatio="xMidYMid meet">

<g transform="translate(0.000000,500.000000) scale(0.100000,-0.100000)"
fill="#665292FF" stroke="none">
<path d="M1482 4690 c-36 -22 -66 -81 -57 -110 5 -15 -9 -34 -53 -77 -83 -81
-92 -122 -61 -267 25 -118 59 -191 105 -221 30 -21 31 -23 19 -53 -16 -37 -59
-52 -156 -52 -113 0 -170 -31 -190 -103 -13 -49 -7 -76 28 -119 l28 -33 -27
18 c-40 25 -50 22 -83 -31 -16 -26 -56 -75 -88 -110 -32 -35 -57 -68 -55 -75
2 -7 32 -25 66 -42 53 -25 62 -33 56 -50 -4 -11 -9 -86 -11 -166 -4 -116 -2
-153 11 -182 22 -55 43 -58 83 -12 46 53 73 147 80 272 5 94 8 104 30 118 23
16 24 15 53 -47 34 -74 60 -167 60 -219 0 -34 -5 -41 -66 -84 -84 -60 -177
-173 -395 -478 -216 -304 -272 -373 -322 -399 -37 -19 -55 -20 -275 -16 -164
2 -236 0 -239 -8 -2 -8 69 -13 235 -18 231 -7 241 -6 298 15 90 34 159 108
324 346 180 261 292 409 372 495 l63 67 91 -10 c54 -5 122 -6 170 -1 85 10 94
6 94 -38 0 -14 7 -70 15 -125 57 -369 115 -889 115 -1038 l0 -107 -51 40
c-124 98 -319 95 -319 -5 0 -27 8 -40 38 -65 l38 -30 -10 -53 c-5 -28 -11 -53
-12 -55 -1 -2 -23 4 -48 12 -59 20 -99 20 -141 0 -33 -15 -35 -15 -67 9 -103
75 -213 116 -344 125 l-93 7 34 55 c18 30 75 156 125 280 50 124 123 293 161
375 39 83 71 152 72 155 1 3 -2 7 -8 9 -12 5 -85 -137 -145 -281 -24 -56 -56
-134 -72 -173 -105 -254 -139 -327 -169 -371 -16 -24 -33 -44 -37 -44 -4 0
-41 32 -82 71 -128 119 -222 169 -291 154 -38 -9 -55 -47 -38 -87 15 -38 117
-130 171 -157 66 -32 152 -46 195 -33 35 11 37 9 103 -47 144 -124 223 -161
344 -161 59 0 77 4 107 25 20 13 39 21 42 18 4 -3 40 -9 82 -13 42 -4 78 -9
80 -12 3 -2 0 -45 -6 -94 -8 -59 -9 -182 -5 -361 5 -218 3 -296 -10 -400 -23
-189 -6 -287 57 -326 26 -16 67 1 86 36 28 50 23 213 -10 352 -62 262 -70 340
-68 671 l1 142 31 6 c37 7 89 57 89 85 0 22 -25 51 -45 51 -7 0 -26 -14 -43
-31 l-31 -32 10 39 c15 54 15 54 52 43 17 -5 74 -10 125 -11 l93 0 -6 -42
c-14 -86 -59 -276 -95 -401 -83 -283 -102 -347 -107 -361 -3 -8 1 -14 8 -14
22 0 179 544 209 718 6 39 15 72 18 71 4 0 25 -24 47 -52 55 -70 94 -89 171
-84 33 2 70 11 82 18 45 28 37 91 -13 103 -31 8 -31 17 -2 44 37 35 99 43 221
27 122 -16 177 -10 253 29 65 33 97 68 90 98 -4 13 -47 75 -96 138 -49 63 -86
118 -83 122 4 3 97 8 208 10 166 3 204 6 217 19 11 11 44 18 109 23 51 3 181
13 288 21 701 52 1108 68 1750 68 685 0 1121 -19 1700 -74 406 -38 912 -109
1281 -179 164 -32 199 -35 199 -21 0 13 -391 86 -735 135 -848 123 -1522 169
-2495 169 -780 1 -1087 -14 -2297 -115 -128 -10 -148 -10 -208 7 -90 24 -124
60 -310 326 -221 316 -319 444 -417 542 l-88 89 0 59 c0 69 22 134 80 229 44
72 59 135 42 166 -9 17 -4 20 50 31 42 8 71 21 91 40 27 27 29 32 25 97 -4 63
-6 71 -39 101 -31 28 -48 34 -121 45 -138 19 -174 54 -178 175 -4 108 -4 107
33 100 42 -8 63 14 83 86 28 106 14 209 -38 282 -18 25 -22 43 -20 82 3 40 -1
56 -19 79 -44 56 -136 73 -197 36z m156 -35 c31 -26 49 -72 35 -86 -5 -5 -28
1 -52 13 -44 21 -58 21 -148 -7 -20 -6 -23 -4 -23 20 0 16 11 38 29 56 40 40
115 42 159 4z m-24 -94 c4 -5 -12 -7 -36 -4 -57 8 -61 13 -10 13 22 0 43 -4
46 -9z m3 -37 c46 -6 55 -11 79 -45 41 -59 56 -139 44 -224 -15 -99 -46 -141
-70 -95 -8 15 -7 26 1 43 21 38 17 146 -7 192 -28 55 -92 88 -153 81 -48 -6
-118 -45 -163 -90 -15 -15 -28 -23 -28 -17 0 26 41 89 79 124 38 34 46 37 104
37 34 0 85 -3 114 -6z m-17 -92 c37 -27 60 -80 60 -139 0 -57 -14 -78 -24 -37
-18 69 -94 148 -154 160 -41 8 -41 21 1 33 41 13 85 6 117 -17z m-121 -42 c61
-17 110 -78 141 -173 12 -38 11 -40 -21 -74 -57 -59 -150 -118 -168 -106 -40
25 -74 99 -87 189 -6 36 -2 46 29 87 20 26 38 56 42 67 7 23 16 24 64 10z
m-104 -29 c-15 -31 -35 -49 -35 -33 0 10 39 62 46 62 2 0 -2 -13 -11 -29z
m235 -261 c-12 -22 -66 -64 -95 -73 -14 -5 -11 0 9 16 16 12 43 34 60 49 37
33 40 34 26 8z m4 -113 c13 -104 66 -149 191 -162 39 -4 82 -13 96 -21 29 -15
59 -69 59 -106 0 -23 -5 -25 -82 -37 -103 -16 -221 -58 -293 -106 l-55 -37
-41 37 c-48 43 -97 65 -199 90 -131 31 -180 67 -180 132 0 73 77 113 219 113
67 0 117 26 133 70 7 22 19 32 46 40 21 6 48 17 62 25 14 8 28 14 31 15 4 0
10 -24 13 -53z m-474 -353 c19 -7 44 -13 56 -14 30 0 173 -39 204 -55 15 -8
51 -35 81 -60 29 -25 59 -45 67 -45 7 0 34 14 59 31 52 36 128 62 155 53 51
-16 43 -65 -31 -193 -47 -82 -71 -158 -71 -221 0 -28 -2 -29 -32 -22 -43 9
-192 9 -245 -1 l-43 -7 0 53 c0 64 -22 141 -62 221 -27 54 -29 63 -19 98 23
76 -34 128 -78 72 -16 -20 -21 -41 -21 -84 0 -52 -2 -58 -24 -64 -28 -7 -122
16 -177 45 l-41 20 49 52 c27 29 62 73 78 100 21 33 34 45 45 41 8 -4 31 -13
50 -20z m800 -5 c0 -14 -63 -39 -102 -39 -64 -1 -173 -30 -222 -60 -27 -17
-51 -29 -53 -26 -7 7 76 57 132 79 116 45 245 70 245 46z m-703 -132 c-3 -21
-4 -20 -15 6 -7 16 -9 33 -6 39 10 16 26 -19 21 -45z m-33 -9 c10 -40 7 -68
-9 -68 -11 0 -15 12 -15 45 0 48 14 60 24 23z m-44 -162 c0 -128 -59 -316
-102 -324 -23 -4 -41 114 -36 232 6 123 14 136 83 136 l55 0 0 -44z m465 -246
c12 -5 -31 -9 -115 -9 -84 0 -127 4 -115 9 11 5 63 9 115 9 52 0 104 -4 115
-9z m143 -126 c57 -72 88 -139 197 -429 167 -446 270 -685 333 -777 l31 -45
-75 5 c-56 3 -86 0 -120 -13 -73 -28 -105 -100 -68 -153 21 -30 14 -36 -46
-36 -60 0 -86 17 -151 97 l-46 57 5 107 c6 157 -69 847 -134 1232 -5 32 -4 32
15 19 11 -8 38 -36 59 -64z m-578 -8 c0 -2 -8 -10 -17 -17 -16 -13 -17 -12 -4
4 13 16 21 21 21 13z m-122 -148 c-14 -18 -82 -116 -153 -218 -153 -221 -224
-316 -261 -350 -15 -14 13 29 62 95 50 66 116 158 149 205 90 130 216 300 222
300 3 0 -6 -15 -19 -32z m969 -173 c177 -248 342 -478 363 -507 l20 -26 -30
-7 c-44 -10 -37 -25 13 -25 l42 0 95 -122 c58 -76 95 -132 95 -147 0 -35 -105
-91 -185 -98 -60 -6 -61 -5 -98 33 -45 48 -83 119 -158 290 -46 108 -252 641
-300 779 l-14 40 25 -30 c14 -16 73 -97 132 -180z m439 -533 c-4 -3 -14 2 -24
12 -16 18 -16 18 6 6 13 -6 21 -14 18 -18z m-1938 -225 c37 -25 94 -73 126
-106 68 -69 64 -78 -28 -68 -121 12 -297 149 -272 212 5 14 15 17 57 13 38 -4
65 -16 117 -51z m1137 -82 c63 -30 124 -93 103 -106 -35 -23 -219 0 -287 36
-48 24 -52 77 -8 96 35 15 133 1 192 -26z m-655 -127 c93 -28 240 -114 240
-140 0 -15 -67 -38 -113 -38 -88 0 -186 47 -305 148 -39 33 -49 48 -40 54 19
12 142 -1 218 -24z m578 -75 c-2 -20 -13 -33 -37 -45 -19 -10 -37 -15 -39 -13
-3 3 7 23 22 45 31 47 59 54 54 13z m520 -31 c4 -24 -7 -29 -26 -10 -18 18
-15 40 6 36 9 -2 18 -13 20 -26z m-685 -3 c23 -6 37 -16 37 -26 0 -13 -11 -15
-68 -11 -70 5 -117 22 -107 39 8 12 91 12 138 -2z m66 -600 c6 -48 27 -156 46
-240 27 -117 35 -177 35 -249 0 -107 -13 -140 -56 -140 -61 0 -80 144 -48 360
14 97 13 256 -1 380 -4 34 -4 34 5 5 4 -16 13 -69 19 -116z"/>
<path d="M3506 4134 c-24 -24 -24 -62 -1 -80 12 -9 7 -37 -32 -175 -25 -90
-48 -166 -49 -168 -2 -2 -71 43 -153 100 -130 90 -151 108 -151 131 0 28 -23
58 -45 58 -7 0 -23 -9 -36 -19 -20 -16 -22 -23 -14 -47 6 -17 20 -30 34 -34
21 -5 30 -24 72 -155 27 -83 49 -155 49 -160 0 -6 -69 -18 -165 -29 -151 -17
-166 -17 -180 -2 -20 20 -39 20 -55 1 -17 -21 -3 -55 24 -55 12 0 26 4 32 9
15 13 410 -123 405 -140 -2 -8 -8 -41 -14 -75 -10 -56 -9 -64 12 -98 29 -46
91 -89 123 -84 20 3 17 7 -25 31 -91 54 -97 134 -16 222 49 53 100 84 194 118
110 39 206 51 368 44 306 -14 407 -20 407 -27 0 -4 -8 -22 -17 -41 -31 -61
-30 -189 1 -189 10 0 12 11 8 45 -6 57 20 99 107 175 63 54 73 73 45 84 -29
11 -52 6 -82 -19 -38 -32 -61 -32 -275 0 -93 14 -188 25 -213 25 -24 0 -44 3
-44 8 0 4 30 97 67 206 48 142 72 200 84 203 41 11 32 66 -10 61 -21 -2 -26
-8 -26 -31 -1 -21 -28 -58 -115 -154 l-115 -127 -71 150 c-64 134 -70 151 -58
169 19 27 18 41 -6 65 -24 24 -43 25 -64 4z m184 -428 c0 -6 47 39 105 99
l105 110 -49 -145 c-27 -80 -52 -152 -56 -162 -5 -13 -27 -17 -113 -23 -59 -3
-127 -10 -152 -16 -70 -16 -183 -74 -228 -118 l-42 -41 -161 52 c-181 59 -182
58 5 78 78 8 116 16 113 24 -25 65 -97 300 -95 307 2 5 73 -39 158 -99 85 -60
156 -109 158 -107 1 1 16 51 33 111 16 60 39 140 51 179 l20 70 74 -154 c41
-85 74 -159 74 -165z"/>
<path d="M5285 3596 c-100 -25 -161 -69 -190 -139 -18 -42 -12 -78 16 -103 19
-18 20 -17 13 22 -5 34 -2 45 21 73 15 17 45 41 66 51 71 37 236 49 386 30 89
-12 263 -51 263 -59 0 -4 -23 -21 -50 -40 -27 -18 -122 -107 -210 -197 l-160
-164 -47 0 c-34 0 -53 6 -70 21 -22 22 -23 22 -68 5 -49 -19 -58 -42 -28 -72
14 -14 29 -16 91 -10 l73 6 -20 -29 c-25 -34 -166 -168 -235 -223 -83 -66
-114 -78 -170 -66 -40 8 -50 7 -67 -8 -23 -21 -24 -47 -3 -68 20 -20 57 -20
95 0 30 15 33 14 108 -24 43 -22 152 -86 242 -141 223 -138 337 -181 489 -184
94 -2 142 14 178 61 36 47 36 128 1 198 -32 64 -55 71 -28 9 24 -53 20 -80
-16 -123 -78 -93 -295 -83 -508 24 -105 53 -351 195 -359 208 -13 19 -9 24 64
73 40 26 131 105 204 176 123 119 134 127 170 127 57 0 204 19 242 31 17 6 32
15 32 21 0 8 -42 9 -136 5 l-135 -6 53 61 c85 98 239 253 285 285 56 40 93 35
93 -12 0 -18 9 -43 20 -56 l20 -24 -6 41 c-6 39 -3 45 34 82 27 27 58 46 94
57 75 22 226 29 338 16 100 -12 270 -50 270 -60 -1 -3 -24 -22 -51 -41 -28
-19 -121 -108 -208 -197 l-157 -163 -49 0 c-36 0 -55 6 -72 21 -21 20 -25 21
-59 8 -51 -19 -64 -42 -39 -70 18 -19 27 -21 93 -15 40 3 72 2 72 -3 0 -16
-238 -238 -295 -276 -60 -40 -68 -41 -137 -30 -43 6 -48 5 -63 -19 -16 -24
-16 -28 -1 -51 19 -29 53 -32 98 -9 30 15 33 15 102 -19 39 -20 141 -79 226
-133 241 -150 360 -196 520 -197 98 -1 139 15 177 73 35 50 25 143 -24 225
-19 33 -28 7 -10 -30 24 -50 21 -78 -10 -116 -87 -103 -283 -95 -518 21 -175
86 -350 193 -352 215 -2 15 20 35 84 80 47 33 136 110 198 171 l112 111 94 7
c122 9 211 27 217 45 4 12 -16 13 -127 8 -73 -3 -131 -2 -129 3 2 5 50 60 107
124 148 163 245 244 284 238 32 -6 105 27 132 60 18 22 25 40 23 62 -3 30 -5
31 -46 30 -31 -1 -55 -9 -87 -32 l-45 -32 -84 20 c-206 49 -431 64 -551 36
-52 -13 -61 -13 -68 0 -16 28 -107 6 -153 -37 -21 -19 -21 -19 -106 1 -203 48
-441 64 -553 36z"/>
<path d="M1955 3588 c-3 -7 -6 -56 -7 -108 l-3 -95 -75 -7 c-101 -9 -102 -11
-98 -168 3 -104 7 -134 26 -175 40 -87 88 -120 112 -75 5 10 19 101 30 201 11
100 21 183 23 184 1 1 20 8 41 16 59 21 63 35 38 120 -12 40 -29 83 -37 96
-17 25 -43 31 -50 11z m64 -121 l20 -57 -22 -15 c-32 -22 -51 -19 -43 8 3 12
6 49 6 82 0 70 11 65 39 -18z m-99 -117 c0 -13 -66 -24 -82 -14 -9 6 -4 11 17
15 46 10 65 10 65 -1z m10 -60 c-1 -50 -36 -310 -43 -316 -12 -12 -44 26 -67
79 -17 39 -24 79 -28 157 l-5 105 72 0 c69 0 71 -1 71 -25z"/>
<path d="M3885 3424 c-69 -36 -155 -144 -155 -196 0 -28 -71 -181 -89 -192 -5
-3 -14 1 -21 9 -16 19 -53 19 -90 0 -56 -29 -33 -75 37 -75 l43 0 -49 -97
c-55 -110 -101 -233 -101 -268 0 -44 73 -49 111 -7 49 53 91 113 85 120 -4 3
-24 -13 -45 -36 -24 -25 -48 -42 -61 -42 -21 0 -22 4 -17 38 4 20 36 96 71
167 l65 130 165 23 c172 24 266 46 266 62 0 15 -90 11 -245 -9 -77 -11 -142
-18 -144 -15 -9 9 109 182 168 245 65 72 104 99 141 99 30 0 24 18 -12 40 -40
24 -82 25 -123 4z"/>
<path d="M4519 3106 c-122 -33 -331 -193 -383 -294 -37 -71 -12 -147 58 -182
38 -18 50 -20 84 -10 55 14 143 82 226 171 37 41 65 65 61 54 -32 -96 -31
-194 4 -229 31 -30 93 -27 161 10 55 30 205 173 230 219 21 39 4 41 -26 4 -40
-50 -143 -147 -189 -179 -60 -41 -80 -45 -106 -19 -19 19 -21 29 -15 75 8 67
37 145 77 208 32 52 31 59 -20 72 -20 6 -43 -13 -160 -129 -75 -75 -156 -152
-180 -172 -88 -72 -137 -82 -154 -32 -7 23 -3 40 23 93 99 202 396 374 493
286 18 -16 19 -16 16 3 -2 10 -19 30 -38 42 -38 26 -89 29 -162 9z"/>
<path d="M7045 3103 c-121 -37 -310 -179 -365 -277 -40 -69 -40 -114 1 -161
79 -89 164 -64 323 96 63 64 96 92 92 77 -22 -75 -28 -142 -17 -179 35 -116
187 -71 344 102 55 59 95 119 82 119 -3 0 -47 -42 -98 -93 -131 -131 -195
-171 -233 -143 -40 30 -7 192 61 294 30 46 28 58 -16 67 -29 7 -38 0 -172
-137 -187 -189 -301 -264 -321 -212 -36 93 110 286 282 372 99 49 154 60 205
38 39 -16 48 -8 20 19 -37 38 -103 44 -188 18z"/>
<path d="M8453 2420 c-21 -291 -52 -429 -118 -526 -55 -80 -151 -136 -280
-164 -64 -14 -304 -40 -372 -40 -101 0 -52 -17 66 -23 234 -13 420 -57 507
-119 103 -73 155 -204 180 -448 8 -80 18 -176 23 -215 l8 -70 2 65 c2 105 29
332 47 406 67 270 213 356 649 380 69 4 128 10 130 14 2 4 -51 10 -118 14
-239 12 -406 50 -496 111 -132 88 -187 260 -209 655 l-7 135 -12 -175z"/>
<path d="M8733 2561 c-20 -17 -20 -17 1 -32 19 -14 23 -14 36 0 13 14 13 18
-1 32 -14 14 -18 14 -36 0z"/>
<path d="M9018 2418 c-8 -92 -32 -138 -88 -165 -24 -13 -62 -23 -83 -23 -23 0
-36 -4 -32 -10 3 -5 18 -10 32 -10 47 0 104 -23 128 -51 24 -29 44 -101 46
-167 1 -21 5 -6 10 37 14 118 54 167 147 178 60 7 80 23 29 23 -19 0 -49 5
-68 11 -70 24 -96 66 -107 172 l-8 72 -6 -67z"/>
<path d="M9238 2457 c-15 -12 -15 -14 3 -25 15 -10 23 -10 38 0 18 11 18 13 3
25 -21 15 -23 15 -44 0z"/>
<path d="M8010 2296 c0 -38 -36 -74 -83 -84 l-42 -9 38 -8 c43 -9 87 -54 87
-91 0 -33 16 -22 23 16 8 36 35 61 85 76 l37 12 -33 1 c-42 1 -92 48 -92 85 0
14 -4 26 -10 26 -5 0 -10 -11 -10 -24z"/>
<path d="M4605 2074 c-496 -30 -1033 -86 -1565 -164 -254 -38 -250 -37 -250
-56 0 -12 7 -14 28 -10 73 15 688 99 922 126 750 86 1694 113 2275 66 388 -32
836 -104 1155 -186 63 -16 116 -27 119 -24 11 11 -22 24 -134 52 -432 111
-862 172 -1415 202 -251 14 -866 10 -1135 -6z"/>
<path d="M5015 1773 c-38 -2 -74 -8 -79 -13 -11 -11 -8 -282 4 -358 11 -65 43
-102 88 -102 38 1 115 37 109 52 -4 14 -25 14 -94 3 l-41 -7 -11 38 c-6 22
-11 62 -11 91 l0 52 58 6 c31 3 66 7 77 8 11 1 21 10 23 20 3 17 -4 18 -75 16
l-78 -2 -3 70 -3 70 32 7 c17 3 51 6 76 6 30 0 45 5 50 15 3 9 4 18 2 20 -9 8
-58 11 -124 8z"/>
<path d="M3861 1757 c-14 -14 -15 -380 -1 -408 9 -16 22 -19 88 -19 84 0 108
9 98 35 -5 14 -17 16 -74 13 l-67 -3 -2 180 c-1 99 -2 185 -2 191 -1 17 -27
24 -40 11z"/>
<path d="M6066 1723 c-3 -21 -6 -68 -6 -104 l0 -67 -67 -11 c-38 -6 -80 -14
-95 -17 l-28 -6 0 116 c0 108 -1 116 -20 116 -27 0 -31 -35 -28 -245 3 -172 4
-180 23 -180 18 0 20 8 23 72 3 82 -6 73 106 93 89 15 86 17 86 -44 0 -30 4
-66 10 -80 10 -27 35 -35 42 -13 3 6 3 101 0 210 -4 179 -6 197 -22 197 -12 0
-19 -11 -24 -37z"/>
<path d="M3366 1742 c-7 -12 -26 -237 -26 -318 0 -70 15 -105 38 -90 5 3 13
73 17 156 4 86 11 150 16 148 5 -2 47 -66 92 -142 82 -139 108 -170 126 -151
12 12 31 191 31 295 0 56 -4 81 -15 90 -26 22 -35 0 -35 -83 0 -99 -10 -187
-21 -187 -4 0 -47 65 -95 145 -83 136 -110 166 -128 137z"/>
<path d="M4476 1728 c-4 -13 -9 -104 -13 -204 -6 -187 -2 -212 32 -184 11 9
15 37 15 110 0 103 9 190 19 190 3 0 44 -67 91 -148 48 -83 92 -148 102 -150
28 -5 36 28 48 202 11 150 10 170 -4 184 -28 28 -37 1 -43 -129 -3 -68 -9
-130 -13 -137 -4 -8 -40 42 -96 135 -64 107 -95 149 -110 151 -15 2 -23 -4
-28 -20z"/>
<path d="M6717 1733 c-9 -9 -8 -228 2 -332 5 -53 13 -86 22 -92 24 -14 34 9
31 75 l-3 63 43 11 c91 24 141 74 141 143 0 46 -23 83 -73 117 -25 17 -47 22
-95 22 -34 0 -65 -3 -68 -7z m129 -52 c51 -23 72 -66 54 -110 -8 -21 -26 -36
-62 -51 -74 -32 -78 -27 -78 85 0 92 1 95 23 95 12 0 40 -9 63 -19z"/>
<path d="M2982 1708 c-52 -25 -89 -76 -101 -141 -16 -89 10 -158 79 -204 71
-49 185 -15 228 67 19 37 23 56 20 112 -3 56 -8 73 -34 105 -55 70 -128 93
-192 61z m126 -59 c27 -17 62 -85 62 -120 -1 -36 -34 -104 -61 -123 -13 -9
-43 -16 -67 -16 -135 0 -165 221 -38 275 31 13 66 8 104 -16z"/>
<path d="M4232 1717 c-13 -16 -25 -223 -16 -286 5 -41 10 -51 25 -51 11 0 19
3 20 8 0 4 2 80 3 169 3 127 1 163 -9 167 -8 3 -18 -1 -23 -7z"/>
<path d="M5534 1716 c-40 -18 -74 -62 -74 -95 1 -53 24 -83 90 -120 51 -29 66
-43 68 -63 6 -53 -49 -74 -107 -40 -27 14 -33 15 -40 3 -20 -32 27 -71 89 -74
51 -2 92 28 104 77 15 56 -1 86 -64 123 -73 42 -90 58 -90 87 0 28 42 66 72
66 10 0 30 -11 44 -25 43 -43 79 -27 47 21 -16 26 -68 54 -95 54 -7 -1 -27 -7
-44 -14z"/>
<path d="M6352 1709 c-52 -26 -86 -69 -102 -129 -35 -133 49 -249 171 -238 91
9 147 70 157 171 9 92 -41 171 -128 201 -56 19 -47 20 -98 -5z m140 -76 c55
-55 53 -156 -3 -213 -25 -24 -39 -30 -76 -30 -115 0 -165 160 -77 248 32 32
38 34 80 29 34 -3 55 -13 76 -34z"/>
<path d="M8061 1377 c-1 -25 -35 -88 -58 -109 -11 -10 -37 -24 -58 -31 l-38
-13 45 -17 c55 -22 74 -41 97 -102 l18 -47 6 32 c10 50 46 91 100 114 l49 22
-40 12 c-52 16 -89 54 -106 111 -8 25 -15 38 -15 28z"/>
</g>
</svg>
