<?xml version="1.0" standalone="no"?>
<!DOCTYPE svg PUBLIC "-//W3C//DTD SVG 20010904//EN"
 "http://www.w3.org/TR/2001/REC-SVG-20010904/DTD/svg10.dtd">
<svg version="1.0" xmlns="http://www.w3.org/2000/svg"
 width="1000.000000pt" height="500.000000pt" viewBox="0 0 1000.000000 500.000000"
 preserveAspectRatio="xMidYMid meet">

<g transform="translate(0.000000,500.000000) scale(0.100000,-0.100000)"
fill="#000000" stroke="none">
<path d="M3192 4118 c-17 -17 -15 -53 4 -72 14 -14 11 -31 -32 -181 -29 -104
-51 -164 -58 -162 -7 3 -76 49 -154 103 -133 93 -142 101 -142 132 0 40 -34
61 -68 43 -42 -23 -35 -86 10 -93 19 -3 29 -24 70 -148 26 -80 48 -152 48
-161 0 -18 -3 -18 -214 -41 -94 -10 -120 -10 -124 0 -2 7 -17 12 -33 12 -27 0
-30 -3 -27 -27 3 -26 6 -28 42 -26 26 2 106 -19 233 -59 l193 -62 6 -37 c4
-21 15 -51 25 -67 18 -31 105 -89 116 -79 3 3 -10 15 -28 26 -45 26 -68 50
-75 78 -18 71 45 137 167 177 92 30 269 50 269 31 0 -26 -64 -196 -158 -421
-149 -358 -172 -445 -137 -513 19 -38 67 -56 140 -55 204 5 412 191 821 739
151 202 240 307 278 327 12 6 35 15 51 18 l30 7 -30 12 c-62 25 -166 -20 -243
-104 -46 -51 -161 -222 -266 -395 -134 -222 -281 -386 -436 -489 -144 -94
-222 -104 -247 -30 -22 69 20 224 147 539 44 106 70 188 84 262 l21 108 45 0
c25 0 67 -7 94 -15 27 -8 52 -13 55 -10 14 15 -22 42 -85 64 -38 13 -70 25
-72 26 -1 1 27 89 63 196 50 147 72 199 92 215 34 29 28 59 -12 59 -26 0 -30
-3 -30 -30 -1 -23 -24 -55 -110 -151 -61 -67 -112 -123 -115 -123 -3 -1 -37
66 -76 148 -65 136 -70 151 -56 165 25 25 5 70 -33 74 -17 2 -36 -3 -43 -10z
m257 -367 c31 35 75 83 96 107 21 23 40 41 42 39 3 -3 -59 -188 -102 -306 -4
-10 -13 -6 -33 15 l-27 29 -3 -26 -3 -26 -117 -6 c-64 -3 -140 -12 -167 -21
-86 -27 -167 -91 -187 -148 -2 -4 -74 15 -161 43 -88 28 -157 52 -155 55 3 2
64 10 138 19 73 8 135 16 137 19 2 2 -19 74 -47 161 -29 86 -50 158 -48 160 2
2 71 -43 153 -100 83 -58 154 -103 160 -101 8 2 59 166 100 321 7 28 13 19 87
-134 l79 -163 58 63z"/>
<path d="M6133 3605 c-51 -22 -129 -101 -188 -190 -44 -66 -152 -270 -167
-316 -3 -8 -12 -7 -35 5 -64 33 -161 12 -287 -62 -76 -45 -105 -71 -299 -274
-71 -73 -157 -138 -183 -138 -27 0 -44 32 -44 80 0 55 28 138 84 245 40 79 49
144 19 146 -71 5 -127 -35 -293 -209 l-140 -145 51 129 c72 184 72 183 65 200
-4 10 -16 14 -38 12 -32 -3 -34 -6 -68 -103 -20 -56 -46 -115 -58 -132 -43
-60 -150 -148 -226 -186 -132 -65 -220 -68 -251 -7 -32 62 31 188 147 295 71
66 152 115 191 115 24 0 27 -3 27 -36 0 -29 -8 -44 -50 -84 -47 -45 -194 -130
-226 -130 -8 0 -14 -5 -14 -11 0 -38 200 43 274 111 118 109 61 233 -83 185
-68 -22 -184 -100 -254 -170 -71 -71 -101 -132 -102 -207 0 -49 4 -61 30 -87
36 -39 91 -54 176 -49 87 5 190 55 282 138 37 34 67 60 67 57 0 -3 -16 -48
-35 -101 -30 -84 -32 -96 -17 -96 42 1 87 42 186 171 139 180 244 274 273 245
4 -3 -15 -50 -40 -104 -72 -151 -84 -252 -34 -287 30 -21 110 -19 157 5 21 11
66 45 99 76 58 53 61 55 61 30 0 -35 54 -93 97 -105 72 -20 165 39 323 206 51
54 90 89 86 78 -62 -166 -79 -233 -80 -327 -1 -89 1 -98 23 -122 21 -22 33
-26 81 -26 58 0 100 19 100 46 0 12 -6 11 -29 -5 -39 -28 -67 -26 -88 6 -37
57 -15 216 58 418 l31 85 156 128 c188 155 299 269 341 354 37 74 39 101 6
133 -20 20 -34 25 -77 25 -29 -1 -68 -7 -85 -15z m137 -30 c30 -37 -56 -174
-196 -311 -80 -79 -214 -187 -222 -179 -6 6 86 178 135 251 67 101 120 160
186 210 64 48 78 52 97 29z m-514 -508 c24 -23 -103 -161 -301 -327 -145 -122
-195 -131 -195 -37 0 108 214 315 379 368 26 8 108 6 117 -4z"/>
<path d="M6713 3260 c-50 -22 -130 -101 -139 -136 -5 -18 -1 -29 12 -38 16
-13 16 -17 -16 -72 -65 -116 -187 -261 -242 -290 -67 -35 -117 1 -78 56 35 49
60 113 60 155 0 51 -11 68 -41 63 -22 -3 -24 -7 -21 -52 4 -63 -22 -136 -49
-136 -18 0 -24 -15 -20 -48 6 -40 -119 -142 -173 -142 -37 0 -49 7 -65 37 -32
61 1 171 82 278 86 114 196 171 205 108 4 -27 18 -30 24 -5 9 31 -10 60 -45
71 -148 49 -378 -228 -343 -412 14 -75 88 -115 178 -96 36 8 62 23 103 61 51
46 57 49 73 35 75 -66 165 1 342 253 l93 132 45 -7 c115 -17 118 -43 22 -157
-88 -103 -120 -165 -120 -230 0 -39 5 -54 26 -75 21 -21 32 -25 68 -21 61 7
107 32 179 99 l65 59 6 -32 c7 -37 64 -93 102 -101 68 -13 139 30 263 157 46
47 85 86 86 86 2 0 -3 -21 -11 -47 -8 -25 -14 -74 -14 -108 0 -53 3 -65 26
-86 32 -30 85 -30 150 2 78 37 272 235 251 255 -3 4 -43 -32 -87 -80 -78 -81
-187 -166 -215 -166 -8 0 -21 8 -30 17 -14 14 -16 30 -12 87 4 57 13 85 51
160 25 50 42 93 38 97 -4 4 -19 11 -33 14 -24 6 -41 -7 -165 -133 -147 -147
-252 -232 -288 -232 -50 0 -61 57 -25 125 60 114 157 207 282 270 85 43 141
52 191 31 35 -15 37 -14 34 2 -6 32 -67 54 -133 48 -109 -10 -310 -130 -393
-235 -64 -80 -197 -206 -246 -231 -46 -25 -47 -25 -62 -6 -22 31 -17 65 21
144 38 80 76 139 142 220 45 55 54 86 27 96 -9 3 -61 6 -116 6 -55 0 -98 3
-96 8 2 4 20 37 41 74 21 38 37 72 35 78 -2 5 -22 1 -45 -10z"/>
<path d="M8457 2465 c-11 -184 -36 -362 -62 -444 -52 -163 -155 -251 -340
-291 -64 -14 -304 -40 -372 -40 -102 0 -52 -17 70 -24 67 -3 163 -13 213 -21
336 -54 431 -165 470 -545 8 -80 18 -176 23 -215 l8 -70 2 66 c2 94 19 259 37
358 56 305 204 402 659 427 69 4 128 10 130 14 2 4 -51 10 -118 14 -235 12
-407 51 -498 110 -128 85 -185 263 -207 651 l-8 130 -7 -120z"/>
<path d="M8733 2561 c-20 -17 -20 -17 1 -32 19 -14 23 -14 36 0 13 14 13 18
-1 32 -14 14 -18 14 -36 0z"/>
<path d="M9017 2406 c-11 -113 -55 -161 -160 -176 -56 -7 -49 -15 25 -25 85
-11 119 -55 137 -180 8 -59 9 -59 10 -15 3 114 51 183 137 195 66 9 87 18 49
22 -127 13 -168 54 -183 180 l-8 68 -7 -69z"/>
<path d="M9250 2460 c0 -5 -7 -10 -16 -10 -13 0 -11 -4 6 -18 21 -17 25 -17
40 -3 14 14 14 17 0 28 -19 15 -30 16 -30 3z"/>
<path d="M8010 2296 c0 -39 -36 -75 -83 -83 l-42 -7 35 -10 c62 -19 90 -49 90
-96 0 -12 5 -18 10 -15 6 3 10 17 10 29 0 31 42 72 83 81 l32 7 -35 8 c-41 10
-80 51 -80 86 0 13 -4 24 -10 24 -5 0 -10 -11 -10 -24z"/>
<path d="M4425 2230 c-376 -12 -1039 -51 -1132 -66 -21 -3 -33 -11 -33 -20 0
-13 10 -14 53 -10 96 11 649 45 927 57 356 16 1279 16 1625 0 755 -33 1471
-111 2100 -228 236 -43 275 -48 275 -35 0 11 -160 43 -485 96 -643 106 -1205
164 -1910 195 -320 15 -1119 21 -1420 11z"/>
<path d="M4610 2075 c-347 -22 -687 -53 -1000 -90 -354 -43 -350 -42 -350 -62
0 -12 7 -14 33 -9 54 10 421 54 622 75 580 62 1425 89 1888 61 508 -31 996
-102 1366 -199 108 -29 137 -32 115 -12 -11 10 -169 51 -344 90 -298 65 -573
104 -965 137 -260 22 -1073 27 -1365 9z"/>
<path d="M5013 1771 c-39 -3 -75 -9 -79 -13 -10 -10 -5 -286 6 -356 11 -65 43
-102 88 -102 38 1 115 37 109 52 -4 14 -25 14 -94 3 l-41 -7 -11 38 c-6 22
-11 62 -11 91 l0 52 58 6 c31 3 66 7 77 8 11 1 21 10 23 20 3 17 -4 18 -75 16
l-78 -2 -3 70 c-3 81 -1 83 96 83 38 0 54 4 59 15 3 9 4 18 2 20 -10 9 -60 12
-126 6z"/>
<path d="M3861 1757 c-14 -14 -15 -365 -1 -401 9 -25 13 -26 87 -26 85 0 109
9 99 35 -5 14 -17 16 -74 13 l-67 -3 -2 180 c-1 99 -2 185 -2 191 -1 17 -27
24 -40 11z"/>
<path d="M6066 1714 c-3 -26 -6 -73 -6 -104 l0 -58 -67 -11 c-38 -6 -80 -14
-95 -17 l-28 -6 0 116 c0 108 -1 116 -19 116 -27 0 -33 -47 -29 -255 3 -162 4
-170 23 -170 18 0 20 8 23 72 3 82 -6 73 106 93 89 15 86 16 87 -42 1 -29 4
-64 8 -78 7 -27 36 -39 43 -18 2 7 2 102 0 211 -4 180 -6 197 -22 197 -13 0
-19 -11 -24 -46z"/>
<path d="M3365 1738 c-8 -23 -25 -241 -25 -314 0 -70 15 -105 38 -90 5 3 13
73 17 156 4 86 11 150 16 148 5 -2 47 -66 92 -142 82 -139 108 -170 126 -151
12 12 31 191 31 295 0 56 -4 81 -15 90 -26 22 -35 0 -35 -83 0 -99 -10 -187
-21 -187 -4 0 -38 51 -75 113 -37 61 -78 127 -91 145 -25 33 -50 42 -58 20z"/>
<path d="M4476 1728 c-4 -13 -9 -104 -13 -204 -6 -187 -2 -212 32 -184 12 10
15 38 15 119 0 108 8 181 19 181 3 0 44 -66 90 -146 46 -80 91 -148 99 -151
26 -11 40 25 46 120 4 51 9 126 12 167 4 58 2 80 -10 95 -26 35 -36 4 -43
-134 -3 -72 -10 -134 -14 -137 -4 -2 -47 62 -96 143 -64 107 -94 149 -109 151
-15 2 -23 -4 -28 -20z"/>
<path d="M6717 1733 c-21 -20 2 -410 25 -424 22 -14 31 8 29 74 l-2 63 56 18
c69 21 114 60 124 106 14 63 -17 123 -81 156 -27 14 -139 20 -151 7z m148 -59
c30 -20 48 -64 39 -99 -5 -21 -20 -33 -61 -52 -78 -36 -83 -32 -83 83 l0 97
41 -7 c22 -4 51 -13 64 -22z"/>
<path d="M2982 1708 c-75 -36 -119 -135 -102 -229 14 -77 83 -139 154 -139
102 0 176 79 176 187 0 91 -46 158 -130 187 -54 19 -46 19 -98 -6z m131 -63
c27 -17 57 -80 57 -118 -1 -34 -35 -102 -61 -121 -13 -9 -42 -16 -65 -16 -136
0 -169 221 -41 275 33 14 69 8 110 -20z"/>
<path d="M4232 1717 c-12 -16 -24 -215 -16 -283 6 -44 10 -54 25 -54 11 0 19
3 20 8 0 4 2 80 3 169 2 125 0 163 -10 167 -7 3 -17 -1 -22 -7z"/>
<path d="M5535 1716 c-49 -21 -70 -53 -70 -102 0 -51 25 -82 102 -123 36 -20
49 -33 51 -52 6 -54 -52 -76 -109 -42 -25 15 -31 16 -38 4 -34 -54 97 -99 157
-54 33 24 50 82 36 121 -6 17 -29 38 -64 59 -73 42 -90 58 -90 87 0 28 42 66
72 66 10 0 30 -11 44 -25 43 -43 79 -27 47 21 -16 26 -68 54 -95 54 -7 -1 -26
-7 -43 -14z"/>
<path d="M6352 1709 c-77 -38 -121 -127 -108 -218 20 -146 189 -202 287 -95
73 80 61 225 -22 286 -28 20 -92 48 -110 48 -2 0 -23 -10 -47 -21z m104 -49
c31 -12 74 -68 76 -98 6 -109 -38 -171 -120 -172 -108 0 -161 150 -85 241 41
48 63 53 129 29z"/>
<path d="M8061 1371 c-1 -8 -10 -34 -22 -57 -15 -33 -32 -49 -70 -68 l-50 -25
43 -19 c52 -23 64 -37 87 -98 l18 -46 6 32 c10 49 45 90 96 113 l46 20 -30 10
c-54 18 -83 46 -104 100 -11 28 -20 46 -20 38z"/>
</g>
</svg>
