<?xml version="1.0" standalone="no"?>
<!DOCTYPE svg PUBLIC "-//W3C//DTD SVG 20010904//EN"
 "http://www.w3.org/TR/2001/REC-SVG-20010904/DTD/svg10.dtd">
<svg version="1.0" xmlns="http://www.w3.org/2000/svg"
 width="500.000000pt" height="500.000000pt" viewBox="0 0 500.000000 500.000000"
 preserveAspectRatio="xMidYMid meet">

<g transform="translate(0.000000,500.000000) scale(0.100000,-0.100000)"
fill="#665292FF" stroke="none">
<path d="M375 4282 c-16 -11 -37 -27 -45 -37 -9 -11 -10 -16 -2 -11 9 5 12 -3
12 -29 0 -20 5 -56 11 -81 10 -39 9 -48 -4 -61 -14 -15 -17 -14 -24 13 -4 16
-8 55 -8 86 1 32 -3 52 -7 45 -4 -7 -8 -44 -8 -83 0 -56 9 -99 39 -195 22 -68
52 -167 66 -219 14 -52 46 -156 70 -230 109 -334 188 -578 239 -740 560 -1784
589 -1872 621 -1920 38 -57 97 -98 157 -109 26 -4 45 -5 43 -1 -6 9 38 16 200
30 66 6 135 13 154 16 28 4 33 3 28 -10 -8 -20 -5 -20 46 3 50 22 193 39 182
21 -10 -16 143 -2 171 15 27 18 208 38 212 25 6 -17 54 -11 68 8 10 12 13 13
14 3 0 -11 3 -11 16 0 13 10 17 10 24 0 6 -10 9 -10 15 -1 4 6 13 9 21 6 7 -3
16 -1 19 4 4 6 11 10 16 10 6 0 7 -4 4 -10 -3 -5 -2 -10 4 -10 5 0 12 4 16 10
3 5 34 15 68 21 80 16 110 45 128 123 8 39 9 60 2 64 -5 4 -63 162 -127 351
-121 357 -121 360 -70 361 24 0 121 -76 217 -169 l69 -66 -7 -96 c-6 -94 -6
-97 20 -127 23 -27 34 -32 71 -32 42 0 46 -3 59 -34 20 -47 60 -76 105 -76 35
0 43 -6 88 -62 28 -35 61 -74 75 -86 l25 -24 16 24 c8 12 27 55 41 93 15 39
30 74 34 78 5 5 134 26 287 48 230 32 308 39 442 39 l162 0 32 30 c22 21 41
30 65 30 75 0 143 54 143 114 0 27 -166 896 -173 902 -1 2 -99 -11 -216 -28
-193 -28 -215 -29 -223 -15 -46 84 -130 157 -210 182 -29 9 -74 27 -100 39
-41 18 -47 25 -48 52 -1 100 -73 210 -168 256 -64 30 -161 30 -226 -2 -26 -12
-48 -21 -50 -19 -2 2 -44 128 -94 279 -52 156 -97 276 -104 277 -7 2 -76 -4
-153 -12 l-140 -14 147 5 146 6 27 -89 c28 -91 243 -770 359 -1132 36 -113 64
-206 63 -207 -2 -2 -135 -26 -297 -54 -162 -28 -540 -94 -840 -146 -300 -53
-556 -96 -570 -97 l-24 -2 -33 240 c-19 132 -65 465 -104 740 -38 275 -73 521
-76 546 l-5 46 113 14 c63 7 107 14 99 16 -13 3 -15 24 -12 126 6 222 44 378
108 443 38 37 61 45 49 17 -27 -66 -37 -134 -42 -278 -4 -131 -1 -192 16 -328
l22 -168 -23 -18 c-22 -19 -22 -19 -5 -56 29 -61 112 -83 174 -45 40 24 55 52
51 93 -3 28 -7 32 -34 35 -31 3 -31 4 -38 71 -3 37 -9 81 -12 98 l-6 31 83 7
c46 4 171 18 278 31 107 13 195 23 197 22 4 -6 34 -112 34 -124 0 -7 -10 -14
-22 -16 -35 -5 -36 -49 -1 -88 52 -59 152 -51 193 15 37 59 24 95 -34 95 -20
0 -24 7 -29 45 -4 25 -9 56 -13 69 -5 21 -2 25 23 29 l28 4 -31 2 c-28 1 -33
5 -39 39 -12 64 -75 224 -123 311 -101 181 -229 279 -376 289 -95 6 -138 -3
-176 -35 -28 -23 -33 -25 -57 -12 -74 40 -195 -28 -253 -141 -50 -98 -64 -184
-65 -382 l0 -186 -40 -6 c-22 -3 -93 -8 -158 -12 l-118 -6 6 -247 c3 -135 8
-282 10 -326 l5 -80 -44 -18 c-25 -10 -65 -37 -91 -59 -81 -72 -123 -164 -133
-298 -4 -47 -11 -84 -16 -83 -13 3 -646 2019 -646 2059 0 40 22 47 128 41 164
-10 1244 -126 1290 -138 23 -7 51 -22 61 -35 16 -20 20 -21 25 -8 3 8 2 13 -3
9 -5 -3 -15 11 -21 31 -16 47 -36 70 -85 99 -41 24 -82 31 -435 70 -74 8 -295
33 -490 55 -404 45 -481 49 -525 22z m4 -44 c-6 -11 -11 -38 -11 -59 1 -44 7
-65 168 -582 69 -219 122 -407 119 -416 -3 -10 2 -35 10 -57 14 -36 14 -24 -1
36 -4 14 -4 23 -1 20 7 -7 367 -1158 366 -1173 0 -7 -5 -3 -10 8 -8 17 -9 17
-4 -5 2 -14 5 -46 5 -72 0 -34 6 -54 24 -75 13 -15 32 -54 42 -85 9 -32 19
-56 22 -54 2 3 -4 28 -13 56 -9 28 -15 53 -13 55 2 3 66 -192 142 -433 76
-240 148 -460 160 -487 26 -57 76 -112 121 -131 16 -7 23 -13 13 -14 -32 0
-103 65 -135 125 -34 63 -43 68 -19 10 8 -19 11 -35 6 -35 -34 0 -81 131 -335
945 -101 321 -349 1111 -545 1730 -128 407 -142 455 -136 471 10 25 25 15 37
-26 7 -22 14 -38 16 -36 3 2 -8 42 -22 88 -30 92 -37 177 -16 202 19 23 24 20
10 -6z m78 -278 c36 -113 114 -362 175 -555 112 -358 292 -932 378 -1200 41
-129 51 -180 34 -162 -3 3 -74 222 -158 488 -84 266 -210 662 -279 879 -179
566 -227 727 -226 763 1 21 3 25 6 12 3 -11 34 -112 70 -225z m1812 -145 c43
-22 146 -138 191 -216 23 -39 62 -118 86 -175 l43 -104 -27 0 c-15 0 -43 -3
-63 -6 l-36 -6 -22 71 c-45 148 -169 348 -258 416 -28 21 -39 35 -31 39 19 8
86 -3 117 -19z m-132 -133 c67 -89 129 -204 167 -311 15 -41 25 -75 24 -76 -2
-1 -37 -5 -80 -9 l-76 -7 -32 96 c-18 53 -34 95 -36 92 -2 -2 10 -43 26 -92
17 -49 30 -92 30 -95 0 -3 -27 -11 -59 -16 l-59 -10 -6 31 c-12 65 -19 375 -9
375 6 0 14 7 17 16 3 9 2 12 -5 9 -11 -7 -3 37 13 68 12 24 17 19 85 -71z
m-577 -495 c0 -10 71 -547 136 -1020 42 -307 74 -560 72 -561 -2 -2 -70 8
-153 21 -82 13 -164 26 -181 29 l-32 4 -6 193 c-3 105 -8 274 -10 374 l-5 182
34 7 c22 4 54 0 86 -10 65 -22 76 -13 18 14 -112 50 -232 1 -295 -122 -48 -95
-41 -233 14 -262 43 -22 74 -61 70 -88 -4 -29 -42 -36 -69 -12 -15 14 -19 14
-19 3 0 -8 5 -20 10 -25 6 -6 8 -18 4 -28 -10 -27 -46 -15 -72 24 l-25 35 6
-38 c7 -48 -11 -46 -35 4 -13 27 -18 31 -23 17 -4 -9 -2 -26 5 -37 8 -17 8
-21 -3 -21 -48 0 -51 86 -7 168 16 31 30 70 30 88 0 104 56 239 126 303 60 56
123 83 209 89 78 6 65 20 -20 21 l-50 1 0 313 0 312 79 7 c43 4 81 10 84 13 6
5 22 7 22 2z m1239 -54 c-23 -61 -79 -91 -135 -73 -29 10 -83 65 -73 74 3 3
131 18 201 24 15 2 16 -2 7 -25z m-679 -118 c0 -16 -33 -66 -52 -79 -12 -9
-40 -16 -61 -16 -32 0 -46 7 -75 37 l-37 38 90 11 c111 14 135 16 135 9z
m1404 -215 c98 -37 176 -149 176 -252 0 -22 8 -32 40 -48 41 -21 60 -45 60
-77 0 -14 -5 -12 -24 12 -13 17 -28 27 -32 22 -4 -4 -2 -13 4 -19 17 -17 15
-63 -3 -78 -15 -13 -14 -14 -30 35 -8 27 -23 16 -21 -17 1 -23 -4 -33 -16 -36
-15 -3 -18 4 -18 37 0 22 -4 43 -10 46 -6 4 -10 -5 -10 -19 0 -30 -7 -32 -32
-9 -23 21 -23 51 2 88 35 53 23 134 -28 189 -59 63 -159 83 -238 47 l-41 -19
-11 36 c-6 20 -9 38 -7 40 12 13 115 41 147 42 21 0 62 -9 92 -20z m-21 -104
c43 -18 94 -77 107 -125 10 -36 8 -42 -15 -65 -14 -14 -28 -39 -32 -57 -3 -17
-12 -33 -19 -36 -8 -3 -34 -32 -59 -65 -28 -37 -47 -55 -50 -46 -3 7 -31 95
-64 195 -59 185 -60 192 -21 206 29 11 121 7 153 -7z m420 -283 c90 -56 160
-158 187 -270 6 -29 18 -57 26 -64 20 -17 17 -56 -6 -79 -54 -54 -129 14 -88
79 9 15 8 31 -6 78 -10 33 -26 70 -36 83 l-18 24 -153 -22 c-85 -12 -191 -22
-235 -22 l-82 0 -15 -37 c-16 -37 -16 -37 -16 -9 -1 33 28 86 73 134 49 53 64
58 87 28 21 -26 53 -34 64 -16 3 6 16 10 29 10 12 0 37 15 55 34 28 29 37 33
61 26 110 -31 220 -191 220 -317 0 -24 4 -33 16 -33 14 0 16 9 11 58 -3 31
-15 84 -28 117 -30 80 -123 175 -197 201 -29 10 -52 24 -52 31 0 16 50 -1 103
-34z m-2561 -175 c-1 -90 1 -262 5 -383 l8 -220 140 -17 c77 -9 171 -21 210
-27 64 -9 93 -6 334 36 211 37 265 43 271 32 15 -23 21 -122 12 -171 -13 -64
-33 -92 -87 -118 -93 -45 -213 -22 -314 61 -65 53 -101 1 -101 -148 0 -209 80
-363 166 -321 70 33 88 149 41 249 -15 29 -25 54 -24 56 2 1 25 -4 52 -12 68
-21 180 -19 231 4 102 46 162 145 171 280 3 42 1 95 -5 118 l-10 42 72 11 c39
7 89 16 111 20 22 5 41 7 43 6 2 -2 52 -151 112 -332 115 -346 117 -354 66
-373 -12 -5 -51 -12 -86 -15 -36 -4 -184 -18 -330 -31 -146 -14 -332 -32 -415
-40 -327 -33 -503 -44 -537 -34 -71 19 -64 1 -303 761 -53 170 -54 189 -10
172 25 -10 63 5 70 26 3 11 15 20 26 20 27 0 59 35 59 66 0 35 -59 94 -94 94
-24 0 -26 4 -28 43 -5 130 19 204 88 267 24 22 47 40 51 40 5 0 7 -73 5 -162z
m2218 148 c0 -3 -22 -27 -49 -55 -27 -28 -52 -60 -56 -71 -3 -11 -11 -20 -16
-20 -5 0 -2 14 7 31 27 52 114 140 114 115z m986 -531 c97 -496 98 -473 -20
-490 l-46 -7 0 43 c0 24 -9 199 -20 389 -11 190 -20 364 -20 388 l0 42 -175 0
c-96 0 -175 4 -175 8 0 10 279 50 334 48 l40 -1 82 -420z m-3425 -66 c10 -30
70 -220 134 -424 64 -203 125 -395 135 -425 11 -30 17 -56 15 -58 -9 -10 -40
76 -140 388 -161 503 -184 581 -172 577 6 -2 19 -28 28 -58z m1905 -5 c-3 -9
-6 -29 -6 -45 l0 -30 -45 32 c-48 35 -48 45 0 52 56 8 57 7 51 -9z m-46 -82
c42 -44 123 -148 182 -233 59 -85 129 -177 156 -205 l49 -50 6 105 c7 124 19
171 52 208 23 27 25 27 52 13 74 -40 85 -174 29 -368 -19 -65 -41 -134 -48
-153 l-14 -34 -54 80 c-210 314 -409 543 -562 646 -34 24 -58 44 -52 46 15 5
96 21 114 22 8 1 49 -34 90 -77z m-545 -51 c14 -103 -19 -234 -75 -302 -78
-95 -223 -106 -418 -31 -10 4 -9 -1 5 -15 30 -30 73 -128 80 -181 7 -60 -16
-117 -53 -134 -24 -11 -29 -10 -53 18 -47 53 -76 162 -76 290 0 94 3 115 18
132 18 20 19 20 61 -23 120 -119 349 -109 407 18 23 51 25 157 5 215 l-15 41
37 6 c20 4 42 8 47 10 21 7 23 4 30 -44z m805 -422 c12 -16 19 -33 16 -36 -8
-9 -56 37 -56 54 0 22 18 15 40 -18z m440 22 c-22 -12 -130 -23 -130 -13 0 18
15 22 79 22 41 0 60 -4 51 -9z m-890 -371 c0 -5 -5 -10 -11 -10 -5 0 -7 5 -4
10 3 6 8 10 11 10 2 0 4 -4 4 -10z m-153 -16 c-3 -3 -12 -4 -19 -1 -8 3 -5 6
6 6 11 1 17 -2 13 -5z"/>
<path d="M432 3870 c0 -8 8 -37 18 -65 10 -27 18 -43 18 -35 0 8 -8 38 -18 65
-10 28 -18 43 -18 35z"/>
<path d="M482 3710 c0 -8 6 -31 13 -50 7 -19 13 -28 13 -20 0 8 -6 31 -13 50
-7 19 -13 28 -13 20z"/>
<path d="M532 3550 c0 -8 6 -31 13 -50 7 -19 13 -28 13 -20 0 8 -6 31 -13 50
-7 19 -13 28 -13 20z"/>
<path d="M582 3390 c0 -8 6 -31 13 -50 7 -19 13 -28 13 -20 0 8 -6 31 -13 50
-7 19 -13 28 -13 20z"/>
<path d="M702 3010 c0 -8 6 -31 13 -50 7 -19 13 -28 13 -20 0 8 -6 31 -13 50
-7 19 -13 28 -13 20z"/>
<path d="M751 2850 c0 -8 4 -24 9 -35 5 -13 9 -14 9 -5 0 8 -4 24 -9 35 -5 13
-9 14 -9 5z"/>
<path d="M802 2690 c0 -8 6 -31 13 -50 7 -19 13 -28 13 -20 0 8 -6 31 -13 50
-7 19 -13 28 -13 20z"/>
<path d="M852 2530 c0 -8 6 -31 13 -50 7 -19 13 -28 13 -20 0 8 -6 31 -13 50
-7 19 -13 28 -13 20z"/>
<path d="M901 2370 c0 -8 4 -24 9 -35 5 -13 9 -14 9 -5 0 8 -4 24 -9 35 -5 13
-9 14 -9 5z"/>
<path d="M972 2150 c0 -8 6 -31 13 -50 7 -19 13 -28 13 -20 0 8 -6 31 -13 50
-7 19 -13 28 -13 20z"/>
<path d="M1111 1704 c-1 -5 10 -41 23 -80 14 -38 25 -64 25 -58 1 5 -10 41
-23 80 -14 38 -25 64 -25 58z"/>
<path d="M1162 1540 c0 -8 8 -37 18 -65 10 -27 18 -43 18 -35 0 8 -8 38 -18
65 -10 28 -18 43 -18 35z"/>
<path d="M1212 1380 c0 -8 8 -37 18 -65 10 -27 18 -43 18 -35 0 8 -8 38 -18
65 -10 28 -18 43 -18 35z"/>
<path d="M1271 1190 c0 -8 4 -24 9 -35 5 -13 9 -14 9 -5 0 8 -4 24 -9 35 -5
13 -9 14 -9 5z"/>
<path d="M2045 3649 c-4 -6 -5 -12 -2 -15 2 -3 7 2 10 11 7 17 1 20 -8 4z"/>
<path d="M2055 3619 c-4 -6 -5 -12 -2 -15 2 -3 7 2 10 11 7 17 1 20 -8 4z"/>
<path d="M2066 3595 c-9 -26 -7 -32 5 -12 6 10 9 21 6 23 -2 3 -7 -2 -11 -11z"/>
<path d="M1935 3969 c-4 -6 -5 -12 -2 -15 2 -3 7 2 10 11 7 17 1 20 -8 4z"/>
<path d="M1215 3418 c-98 -156 -185 -293 -193 -305 -8 -13 -10 -23 -6 -23 5 0
92 131 194 292 222 349 203 318 192 318 -5 0 -90 -127 -187 -282z"/>
<path d="M1463 3508 c-32 -40 -234 -371 -231 -378 2 -5 58 79 126 186 68 108
122 198 119 200 -2 3 -9 -1 -14 -8z"/>
<path d="M1823 3223 c9 -2 25 -2 35 0 9 3 1 5 -18 5 -19 0 -27 -2 -17 -5z"/>
<path d="M2585 2866 c-34 -34 -27 -42 17 -20 33 15 37 15 81 -4 26 -12 47 -17
47 -13 0 18 -50 52 -83 58 -30 4 -40 1 -62 -21z"/>
<path d="M2243 2815 c-45 -45 -33 -66 14 -24 31 27 42 30 75 26 39 -5 47 0 26
21 -25 25 -78 14 -115 -23z"/>
<path d="M2637 2739 c-69 -40 -71 -217 -2 -286 42 -42 75 -43 109 -3 53 63 43
205 -19 267 -34 34 -57 40 -88 22z m104 -60 c25 -51 28 -153 4 -198 -17 -34
-53 -48 -83 -32 -23 12 -62 87 -61 117 0 17 1 17 9 -2 11 -28 48 -54 67 -47
15 6 43 54 43 76 0 8 -12 20 -27 27 l-28 14 28 4 c32 4 34 15 7 65 l-21 38 21
-11 c11 -6 29 -29 41 -51z"/>
<path d="M2294 2682 c-43 -29 -48 -134 -10 -217 57 -126 164 -118 174 13 5 70
-24 149 -70 187 -29 24 -72 32 -94 17z m92 -27 c72 -72 80 -235 13 -259 -33
-11 -68 12 -98 65 -28 49 -26 57 5 25 15 -14 31 -26 37 -26 43 0 67 97 27 107
-23 6 -27 23 -5 23 23 0 18 34 -10 64 -32 35 -4 36 31 1z"/>
<path d="M2527 2422 c-10 -10 -17 -27 -17 -38 0 -16 3 -15 25 8 32 35 59 28
53 -13 -5 -34 7 -38 22 -8 26 48 -46 92 -83 51z"/>
<path d="M2817 2368 c-63 -92 -157 -138 -280 -138 -92 0 -159 19 -264 76 -46
24 -83 40 -83 35 0 -15 116 -88 178 -112 86 -33 229 -38 303 -10 68 26 142 88
170 143 31 62 17 65 -24 6z"/>
<path d="M1618 703 c7 -3 16 -2 19 1 4 3 -2 6 -13 5 -11 0 -14 -3 -6 -6z"/>
</g>
</svg>
